<svg width="24" height="24" viewBox="0 0 24 24" fill="none" xmlns="http://www.w3.org/2000/svg">
<path d="M14.1783 19.5825C17.01 19.5825 19.3516 17.2409 19.3516 14.4092C19.3516 11.8498 17.4456 9.726 14.9951 9.29035V4.87942H4.64847V15.2261H9.0594C9.49504 17.6766 11.6188 19.5825 14.1783 19.5825ZM14.9951 10.9785C16.5743 11.3597 17.7179 12.7755 17.7179 14.4092C17.7179 16.3696 16.1387 17.9488 14.1783 17.9488C12.4901 17.9488 11.1287 16.8053 10.7475 15.2261H14.9951V10.9785ZM6.28214 6.5131H13.3614V13.5924H6.28214V6.5131ZM0.291992 0.522949V23.939H23.708V0.522949H0.291992ZM22.0744 22.3053H1.92567V2.15663H22.0744V22.3053Z" fill="url(#paint0_linear_2731_1511)"/>
<defs>
<linearGradient id="paint0_linear_2731_1511" x1="0.291992" y1="14.2213" x2="23.708" y2="14.2213" gradientUnits="userSpaceOnUse">
<stop stop-color="#C5A332"/>
<stop offset="1" stop-color="#E4C04B"/>
</linearGradient>
</defs>
</svg>
