<svg width="15" height="13" viewBox="0 0 15 13" fill="none" xmlns="http://www.w3.org/2000/svg">
<path fill-rule="evenodd" clip-rule="evenodd" d="M13.513 6.34363C13.513 4.21463 12.623 2.33405 10.7864 0.687267L11.4026 0C13.406 1.79629 14.436 3.91633 14.436 6.34363C14.436 8.77387 13.3787 10.9297 11.3318 12.7981L10.7095 12.1163C12.6005 10.3902 13.513 8.4697 13.513 6.34363ZM10.8305 6.33811C10.8305 5.19038 10.2301 3.91597 8.89573 2.50719L9.5659 1.87241C10.9804 3.36579 11.7536 4.85692 11.7536 6.33811C11.7536 8.50095 10.6077 9.83479 9.56034 10.9028L8.90129 10.2565C9.91606 9.22174 10.8305 8.11681 10.8305 6.33811ZM0 8.6107V4.0387H3.23077L6.46154 1.75408V10.959L3.11169 8.6107H0Z" fill="#4A7D95"/>
</svg>
